<?xml version="1.0" encoding="utf-8"?>
<!-- Generator: Adobe Illustrator 15.0.2, SVG Export Plug-In . SVG Version: 6.00 Build 0)  -->
<!DOCTYPE svg PUBLIC "-//W3C//DTD SVG 1.1//EN" "http://www.w3.org/Graphics/SVG/1.1/DTD/svg11.dtd">
<svg version="1.1" id="Layer_1" xmlns="http://www.w3.org/2000/svg" xmlns:xlink="http://www.w3.org/1999/xlink" x="0px" y="0px"
	 width="79px" height="79px" viewBox="0 0 79 79" enable-background="new 0 0 79 79" xml:space="preserve">
<path fill="#705634" d="M35.658,10.617v7.973L12.625,41.623l4.986,9.78l14.117-5.469L16.517,68.383h19.141
	c15.953,0,28.884-12.931,28.884-28.883S51.611,10.617,35.658,10.617z M31.087,32.373c-0.348-1.382,0.093-2.904,1.264-3.872
	c1.171-0.969,2.748-1.117,4.041-0.515c0.349,1.382-0.092,2.903-1.264,3.872C33.957,32.827,32.379,32.974,31.087,32.373z
	 M35.867,46.8c-1.452,0-2.824-0.313-4.084-0.84l11.584-17.369c1.945,1.932,3.164,4.589,3.164,7.545
	C46.531,42.025,41.757,46.8,35.867,46.8z"/>
</svg>
