<?xml version="1.0" encoding="utf-8"?>
<!-- Generator: Adobe Illustrator 15.0.2, SVG Export Plug-In . SVG Version: 6.00 Build 0)  -->
<!DOCTYPE svg PUBLIC "-//W3C//DTD SVG 1.1//EN" "http://www.w3.org/Graphics/SVG/1.1/DTD/svg11.dtd">
<svg version="1.1" id="Layer_1" xmlns="http://www.w3.org/2000/svg" xmlns:xlink="http://www.w3.org/1999/xlink" x="0px" y="0px"
	 width="110.848px" height="48.005px" viewBox="0 0 110.848 48.005" enable-background="new 0 0 110.848 48.005"
	 xml:space="preserve">
<g>
	<path fill="#D1B386" d="M42.744,19.028c-2.239,0.528-4.173,2.834-5.749,5.527c-1.133,1.925-2.073,4.082-2.875,5.873l-0.221-0.058
		c0.608-2.188,1.105-4.185,1.521-6.051c1.547-2.106,3.399-3.813,4.947-5.256c1.796-1.695,3.095-3.079,3.095-4.681
		c0-1.354-1.382-1.831-3.178-1.407c-4.063,0.958-7.324,4.353-8.568,9.37c-0.94,3.731-2.128,9.87-3.648,13.738
		c0.085,0.022,0.183,0.027,0.271,0.045c-2.646,2.512-5.47,3.998-8.36,4.68c-5.533,1.304-8.914-2.571-8.914-9.333
		c0-12.541,7.069-27.242,13.893-28.85c3.074-0.725,4.549,1.019,4.549,4.646c0,2.828-1.229,5.823-3.32,7.976l0.185,0.693
		c3.258-1.382,6.085-2.726,8.729-4.394c1.598-1.729,2.766-4.525,2.766-6.554c0-4.918-4.365-5.917-11.495-4.237
		C11.68,4.219,0,20.682,0,36.051c0,9.652,5.41,13.418,13.77,11.447c7.282-1.716,13.289-6.208,16.775-11.264
		c0.611-0.043,1.242-0.121,1.89-0.24c1.99-4.752,3.565-8.274,5.113-11.043c1.023-1.843,2.101-3.23,2.819-3.399
		c0.415-0.098,0.691,0.085,0.691,0.666c0,1.133-0.94,3.593-1.852,6.35c-0.967,2.715-1.879,5.694-1.879,7.821
		c0,1.686,0.856,2.921,3.482,2.302c1.244-0.293,2.211-0.937,3.096-1.642l0.083-0.545l-0.083-0.035
		c-0.387,0.257-0.774,0.486-1.244,0.597c-0.553,0.13-0.884-0.206-0.884-1.145c0-2.708,1.713-7.671,2.625-10.098
		c0.663-1.759,1.354-3.718,1.354-4.712C45.756,19.479,44.706,18.566,42.744,19.028z M36.193,20.544
		c0.719-3.65,1.493-6.32,2.571-6.574c0.58-0.137,0.995,0.345,0.995,1.866c0,1.823-0.718,3.098-1.741,4.417
		c-0.69,0.88-1.52,1.795-2.349,2.93C35.862,22.308,36.028,21.439,36.193,20.544z"/>
	<path fill="#D1B386" d="M68.587,12.937c-3.041,0.716-7.076,3.16-7.076,6.669c0,1.88,1.382,2.521,3.262,3.321
		c1.299,0.579,2.404,0.954,2.404,2.363c0,1.243-0.884,2.087-1.824,2.309c-1.769,0.417-3.289-2.099-3.759-3.895l-0.249,0.059
		c-0.339,0.443-0.668,0.921-0.974,1.416c-1.721,1.945-3.74,3.343-5.687,3.802c-2.101,0.496-3.151-0.833-3.151-3.154
		c0-4.063,1.714-8.446,3.648-8.902c0.636-0.15,0.885,0.179,0.885,1.036c0,2.155-1.907,5.009-4.118,6.663l0.166,0.32
		c4.201-1.709,7.545-4.569,7.545-7.029c0-1.879-1.547-2.508-4.146-1.896c-4.92,1.16-8.679,6.66-8.679,11.413
		c0,3.233,1.824,4.738,5.251,3.93c2.466-0.582,5.167-2.295,7.415-4.484c-0.038,0.092-0.084,0.183-0.119,0.276
		c0.857,1.511,3.649,1.627,6.191,1.028c2.46-0.58,5.362-2.618,5.362-5.464c0-1.962-1.327-2.645-3.234-3.467
		c-1.271-0.529-2.349-1.159-2.349-2.596c0-1.437,0.885-2.364,2.045-2.637c1.271-0.3,2.184,0.48,2.184,1.364
		c0,0.746-0.636,1.615-1.299,2.434l0.083,0.229c1.023-0.269,2.294-0.596,3.344-0.954c0.857-0.728,1.465-1.506,1.465-2.501
		C73.175,12.904,71.352,12.285,68.587,12.937z"/>
	<path fill="#D1B386" d="M81.578,9.874c-3.041,0.717-7.076,3.16-7.076,6.669c0,1.88,1.382,2.521,3.262,3.321
		c1.299,0.579,2.404,0.954,2.404,2.363c0,1.243-0.885,2.088-1.824,2.309c-1.769,0.417-3.289-2.099-3.759-3.894L74.336,20.7
		c-0.774,1.011-1.52,2.182-1.962,3.392c0.857,1.511,3.648,1.627,6.191,1.027c2.46-0.58,5.362-2.618,5.362-5.464
		c0-1.962-1.327-2.645-3.234-3.466c-1.271-0.529-2.349-1.159-2.349-2.597c0-1.437,0.884-2.364,2.045-2.637
		c1.272-0.3,2.184,0.48,2.184,1.364c0,0.746-0.636,1.614-1.299,2.434l0.083,0.229c1.023-0.269,2.294-0.597,3.344-0.955
		c0.857-0.728,1.465-1.505,1.465-2.5C86.166,9.842,84.342,9.223,81.578,9.874z"/>
	<path fill="#D1B386" d="M108.637,3.496c-2.487,0.586-3.759,3.289-4.754,5.044c-1.022,1.927-2.156,4.376-3.013,6.209l-0.415-0.151
		c1.354-3.193,2.57-6.823,2.709-9.564l-0.332-0.17c-1.382,0.326-4.063,1.151-5.445,1.698l-0.055,0.345l1.023,1.058
		c-0.215,2.234-1.323,6.202-2.297,9.224c-1.541,1.58-3.688,3.381-5,3.936c-0.055-0.097-0.11-0.305-0.11-0.582
		c0-1.658,1.105-6.339,2.072-9.746c0.138-0.502,0.332-1.266,0.47-1.741l2.792-0.658l0.276-0.701l-2.875,0.678
		c0.553-2.065,1.105-4.434,1.354-6.012l-0.664-0.203c-0.525,2.556-2.93,5.886-5.362,7.315l-1.327,0.313l-0.276,0.701l1.382-0.325
		c-0.083,0.378-0.276,1.198-0.442,1.79c-0.802,3.119-1.713,6.898-1.713,8.556c0,1.769,1.216,2.421,2.902,2.024
		c1.835-0.433,4.301-2.367,6.126-4.154c-0.256,0.755-0.491,1.412-0.682,1.902c0.856,0.296,2.984,0.236,4.173-0.016
		c1.879-4.672,3.482-8.062,4.699-10.31c0.884-1.59,1.465-2.252,1.935-2.363c0.912-0.215,1.741,1.358,2.322,3.459l0.442-0.104
		c1.05-2.154,1.769-3.898,2.294-6.012C110.765,3.794,109.963,3.183,108.637,3.496z"/>
</g>
</svg>
