<?xml version="1.0" encoding="utf-8"?>
<!-- Generator: Adobe Illustrator 15.0.2, SVG Export Plug-In . SVG Version: 6.00 Build 0)  -->
<!DOCTYPE svg PUBLIC "-//W3C//DTD SVG 1.1//EN" "http://www.w3.org/Graphics/SVG/1.1/DTD/svg11.dtd">
<svg version="1.1" id="Layer_1" xmlns="http://www.w3.org/2000/svg" xmlns:xlink="http://www.w3.org/1999/xlink" x="0px" y="0px"
	 width="109.848px" height="48.069px" viewBox="0 0 109.848 48.069" enable-background="new 0 0 109.848 48.069"
	 xml:space="preserve">
<g>
	<path fill="#D1B386" d="M50.534,28.825c0,2.322,1.05,3.65,3.151,3.154c2.35-0.554,4.809-2.461,6.716-5.065l0.111,0.03v0.689
		c-2.487,3.213-6.164,5.958-9.425,6.727c-3.427,0.809-5.251-0.696-5.251-3.93c0-4.753,3.759-10.254,8.679-11.413
		c2.598-0.612,4.146,0.017,4.146,1.896c0,2.461-3.344,5.32-7.545,7.029l-0.166-0.32c2.211-1.653,4.118-4.508,4.118-6.662
		c0-0.857-0.249-1.186-0.885-1.036C52.248,20.379,50.534,24.762,50.534,28.825z"/>
	<path fill="#D1B386" d="M64.575,31.18c-2.542,0.6-5.334,0.483-6.191-1.027c0.443-1.21,1.189-2.381,1.962-3.391l0.249-0.06
		c0.47,1.796,1.99,4.312,3.759,3.895c0.94-0.222,1.824-1.065,1.824-2.31c0-1.408-1.105-1.783-2.404-2.362
		c-1.88-0.8-3.262-1.44-3.262-3.321c0-3.508,4.035-5.952,7.076-6.668c2.764-0.652,4.588-0.033,4.588,1.652
		c0,0.996-3.593,1.538-3.593,0.792c0-0.884-0.912-1.663-2.184-1.364c-1.161,0.273-2.045,1.201-2.045,2.638
		c0,1.438,1.078,2.067,2.349,2.597c1.907,0.822,3.234,1.504,3.234,3.467C69.937,28.563,67.035,30.6,64.575,31.18z"/>
	<path fill="#D1B386" d="M77.565,27.77c-2.543,0.6-5.334,0.483-6.191-1.027c0.442-1.21,1.189-2.381,1.962-3.392l0.249-0.059
		c0.47,1.796,1.99,4.312,3.759,3.894c0.939-0.221,1.824-1.065,1.824-2.309c0-1.409-1.105-1.784-2.404-2.363
		c-1.88-0.799-3.262-1.44-3.262-3.32c0-3.509,4.035-5.952,7.076-6.669c2.764-0.651,4.588-0.032,4.588,1.653
		c0,0.996-3.593,1.538-3.593,0.792c0-0.884-0.912-1.664-2.184-1.364c-1.161,0.273-2.045,1.201-2.045,2.637
		c0,1.438,1.078,2.068,2.349,2.598c1.907,0.821,3.234,1.504,3.234,3.466C82.927,25.152,80.025,27.19,77.565,27.77z"/>
	<path fill="#D1B386" d="M107.637,4.495c-2.487,0.586-3.759,3.289-4.754,5.045c-1.022,1.926-2.156,4.375-3.013,6.209l-0.415-0.152
		c1.354-3.193,2.194-5.387,2.725-8.381l-0.332-0.17l-5.454,1.391l-0.222,0.676l1.334-0.342c0.215,3.416-1.16,12.02-7.919,14.779
		c-0.055-0.098-0.11-0.306-0.11-0.582c0-1.658,1.575-7.766,2.543-11.172c0.138-0.503,0.332-1.266,0.47-1.741l9.042-2.314l0.276-0.7
		l-9.125,2.334c0.553-2.065,1.105-4.434,1.354-6.012l-0.664-0.203c-2.257,6.161-6.688,7.628-6.688,7.628l-0.276,0.7l1.382-0.324
		c-0.083,0.378-0.276,1.197-0.442,1.789c-0.913,3.551-2.184,8.324-2.184,9.523c0,1.77,1.235,2.953,2.902,2.482
		c3.403-0.961,10.374-3.922,10.374-3.922c1.879-4.672,3.197-7.832,4.414-10.081c0.884-1.591,1.465-2.253,1.935-2.363
		c0.912-0.215,1.741,1.358,2.322,3.46l0.442-0.104c1.05-2.153,1.769-3.898,2.294-6.012C109.765,4.793,108.963,4.182,107.637,4.495z"
		/>
	<path fill="#D1B386" d="M45.756,21.108c0-1.631-1.05-2.543-3.012-2.08c-2.239,0.527-4.173,2.834-5.749,5.526
		c-1.133,1.925-2.073,4.081-2.875,5.873l-0.221-0.058c0.608-2.189,2.754-11.236,2.919-12.132c0.719-3.65,1.493-6.32,2.571-6.574
		c0.58-0.138,0.995,0.345,0.995,1.866c0,1.244,3.704,0.148,3.704-1.453c0-1.355-1.382-1.831-3.178-1.407
		c-4.063,0.958-7.324,4.353-8.568,9.37c-0.786,3.12-4.6,22.443-12.328,23.593c-5.623,0.837-8.949-5.396-8.949-12.157
		c0-12.541,7.069-27.242,13.893-28.851c3.074-0.725,4.549,1.019,4.549,4.646c0,2.828-1.229,5.822-3.32,7.977l0.185,0.693
		c3.258-1.383,11.233-4.991,11.495-10.948c0.216-4.913-4.365-5.917-11.495-4.237C11.68,4.218,0,20.68,0,36.049
		c0,9.652,5.456,13.602,13.77,11.447c16.585-4.298,22.41-20.1,23.778-22.547c1.023-1.844,2.101-3.23,2.819-3.4
		c0.415-0.098,0.691,0.086,0.691,0.666c0,1.133-0.94,3.594-1.852,6.35c-0.967,2.716-1.52,4.352-1.52,6.479
		c0,1.686,0.856,2.921,3.482,2.302c1.244-0.293,2.211-0.937,3.096-1.642l0.083-0.545l-0.083-0.035
		c-0.387,0.257-0.774,0.486-1.244,0.597c-0.553,0.13-0.884-0.206-0.884-1.146c0-2.707,1.354-6.328,2.267-8.754
		C45.065,24.062,45.756,22.102,45.756,21.108z"/>
</g>
</svg>
