<?xml version="1.0" encoding="utf-8"?>
<!-- Generator: Adobe Illustrator 15.0.2, SVG Export Plug-In . SVG Version: 6.00 Build 0)  -->
<!DOCTYPE svg PUBLIC "-//W3C//DTD SVG 1.1//EN" "http://www.w3.org/Graphics/SVG/1.1/DTD/svg11.dtd">
<svg version="1.1" id="Layer_1" xmlns="http://www.w3.org/2000/svg" xmlns:xlink="http://www.w3.org/1999/xlink" x="0px" y="0px"
	 width="79px" height="77.712px" viewBox="0 0 79 77.712" enable-background="new 0 0 79 77.712" xml:space="preserve">
<rect fill="#FFFFFF" width="79" height="77.712"/>
<g>
	<rect x="6.152" y="16.913" fill="#0E111C" width="22.345" height="22.346"/>
</g>
<g>
	<rect x="28.497" y="16.913" fill="#D1B386" width="22.347" height="22.346"/>
</g>
<g>
	<rect x="50.739" y="16.913" fill="#0E111C" width="22.345" height="22.346"/>
</g>
<g>
	<rect x="6.152" y="39.259" fill="#D1B386" width="22.345" height="22.347"/>
</g>
<g>
	<rect x="28.497" y="39.259" fill="#0E111C" width="22.347" height="22.347"/>
</g>
<g>
	<rect x="50.739" y="39.259" fill="#D1B386" width="22.345" height="22.347"/>
</g>
<g>
	<path fill="#0E111C" d="M15.982,5.797h1.031l1.555,4.821l1.582-4.821h1.031l1.582,4.821l1.555-4.821h1.031l-2.08,6.321h-0.93
		l-1.665-5.033l-1.684,5.033h-0.929L15.982,5.797z"/>
	<path fill="#0E111C" d="M37.711,5.797v6.321h-0.929V9.33h-3.45v2.788h-0.93V5.797h0.93v2.669h3.45V5.797H37.711z"/>
	<path fill="#0E111C" d="M49.594,10.83h-3.293l-0.553,1.288h-1.03l2.714-6.321h1.031l2.714,6.321h-1.03L49.594,10.83z M49.235,9.993
		l-1.288-3l-1.288,3H49.235z"/>
	<path fill="#0E111C" d="M59.352,6.662h-2.07V5.797h5.078v0.865h-2.078v5.456h-0.93V6.662z"/>
</g>
<g>
	<path fill="#0E111C" d="M14.123,66.88h0.93v6.321h-0.93V66.88z"/>
	<path fill="#0E111C" d="M22.178,72.29l0.561-0.689c0.562,0.533,1.225,0.883,2.08,0.883c0.873,0,1.324-0.46,1.324-0.966
		c0-0.599-0.523-0.828-1.582-1.067c-1.289-0.304-2.145-0.69-2.145-1.831c0-1.059,0.92-1.858,2.19-1.858
		c0.976,0,1.702,0.358,2.31,0.893l-0.533,0.699c-0.534-0.488-1.169-0.773-1.813-0.773c-0.708,0-1.205,0.451-1.205,0.957
		c0,0.589,0.543,0.791,1.583,1.04c1.26,0.294,2.135,0.718,2.135,1.85c0,1.067-0.811,1.877-2.301,1.877
		C23.723,73.303,22.85,72.935,22.178,72.29z"/>
	<path fill="#0E111C" d="M43.016,66.88h0.929v6.321h-0.929V66.88z"/>
	<path fill="#0E111C" d="M53.166,67.745h-2.069V66.88h5.079v0.865h-2.08v5.456h-0.93V67.745z"/>
	<path fill="#0E111C" d="M64.268,69.641c1.002-0.074,1.711-0.516,1.711-1.059c0-0.506-0.433-0.975-1.141-0.975
		c-0.607,0-1.068,0.331-1.436,0.772l-0.57-0.57c0.506-0.607,1.187-1.04,2.107-1.04c1.186,0,1.978,0.755,1.978,1.721
		c0,0.828-0.735,1.573-1.767,1.794v1.013h-0.883V69.641z M64.092,72.686c0-0.313,0.268-0.598,0.617-0.598
		c0.331,0,0.598,0.285,0.598,0.598c0,0.341-0.267,0.626-0.598,0.626C64.359,73.312,64.092,73.026,64.092,72.686z"/>
</g>
<path fill="#D1B386" d="M13.424,23.542h3.321c3.122,0,5.317,1.879,5.317,4.538s-2.195,4.551-5.317,4.551h-3.321V23.542z
	 M17.089,30.58c1.548,0,2.659-1.045,2.659-2.5s-1.111-2.487-2.659-2.487h-1.402v4.987H17.089z"/>
<path fill="#0E111C" d="M38.354,25.566v1.415h4.445v2.024h-4.445v1.601h4.896v2.024h-7.157v-9.089h7.157v2.024H38.354z"/>
<path fill="#D1B386" d="M58.553,23.542h4.75c1.68,0,2.844,0.966,2.844,2.289c0,0.899-0.463,1.627-1.257,2.024
	c1.046,0.463,1.667,1.322,1.667,2.314c0,1.455-1.283,2.461-3.082,2.461h-4.922V23.542z M62.746,27.141
	c0.622,0,1.072-0.357,1.072-0.847s-0.45-0.833-1.072-0.833h-1.944v1.68H62.746z M63.09,30.713c0.662,0,1.139-0.384,1.139-0.913
	s-0.477-0.913-1.139-0.913h-2.288v1.826H63.09z"/>
<path fill="#0E111C" d="M13.517,51.005v-5.106h2.263v5.001c0,1.283,0.819,2.196,1.957,2.196c1.151,0,1.972-0.913,1.972-2.196v-5.001
	h2.249v5.106c0,2.435-1.733,4.142-4.221,4.142C15.263,55.146,13.517,53.439,13.517,51.005z"/>
<path fill="#D1B386" d="M38.234,48.002h-2.764v-2.024h7.778v2.024h-2.752v7.064h-2.263V48.002z"/>
<g>
	<circle fill="#0E111C" cx="61.912" cy="48.377" r="5.502"/>
	<rect x="56.41" y="53.879" fill="#0E111C" width="11.004" height="4.292"/>
</g>
</svg>
