<?xml version="1.0" encoding="utf-8"?>
<!-- Generator: Adobe Illustrator 15.0.2, SVG Export Plug-In . SVG Version: 6.00 Build 0)  -->
<!DOCTYPE svg PUBLIC "-//W3C//DTD SVG 1.1//EN" "http://www.w3.org/Graphics/SVG/1.1/DTD/svg11.dtd">
<svg version="1.1" id="Layer_1" xmlns="http://www.w3.org/2000/svg" xmlns:xlink="http://www.w3.org/1999/xlink" x="0px" y="0px"
	 width="79px" height="77.712px" viewBox="0 0 79 77.712" enable-background="new 0 0 79 77.712" xml:space="preserve">
<rect fill="#FFFFFF" width="79" height="77.712"/>
<g>
	<rect x="6.152" y="17.51" fill="#0E111C" width="22.345" height="22.346"/>
</g>
<g>
	<rect x="28.497" y="17.51" fill="#D1B386" width="22.346" height="22.346"/>
</g>
<g>
	<rect x="50.739" y="17.51" fill="#0E111C" width="22.345" height="22.346"/>
</g>
<g>
	<rect x="6.152" y="39.856" fill="#D1B386" width="22.345" height="22.347"/>
</g>
<g>
	<rect x="28.497" y="39.856" fill="#0E111C" width="22.346" height="22.347"/>
</g>
<g>
	<rect x="50.739" y="39.856" fill="#D1B386" width="22.345" height="22.347"/>
</g>
<path fill="#0E111C" d="M43.716,31.25l0.805,0.699l-1.095,1.268l-0.884-0.766c-0.819,0.581-1.809,0.924-2.877,0.924
	c-2.64,0-4.871-2.151-4.871-4.698s2.231-4.687,4.871-4.687c2.653,0,4.883,2.14,4.883,4.687
	C44.547,29.614,44.244,30.512,43.716,31.25z M40.878,31l-0.937-0.819l1.096-1.268L42,29.746c0.146-0.33,0.225-0.686,0.225-1.068
	c0-1.426-1.175-2.64-2.561-2.64c-1.386,0-2.561,1.214-2.561,2.64c0,1.438,1.175,2.652,2.561,2.652
	C40.1,31.33,40.522,31.211,40.878,31z"/>
<path fill="#0E111C" d="M19.12,54.243h-3.59l-0.528,1.321h-2.534l3.59-9.068h2.534l3.59,9.068h-2.534L19.12,54.243z M18.42,52.474
	l-1.095-2.785l-1.096,2.785H18.42z"/>
<path fill="#0E111C" d="M60.81,48.515v1.412h4.435v2.02H60.81v1.597h4.884v2.021h-7.141v-9.068h7.141v2.02H60.81z"/>
<path fill="#D1B386" d="M13.424,31.858l1.267-1.518c0.885,0.726,1.875,1.147,2.983,1.147c0.845,0,1.281-0.343,1.281-0.831
	c0-0.541-0.422-0.66-1.743-0.977c-1.939-0.436-3.378-0.964-3.378-2.785c0-1.742,1.399-2.904,3.471-2.904
	c1.518,0,2.706,0.437,3.669,1.241l-1.148,1.61c-0.832-0.634-1.742-0.964-2.587-0.964c-0.726,0-1.135,0.344-1.135,0.792
	c0,0.554,0.436,0.738,1.782,1.029c2.032,0.436,3.339,1.017,3.339,2.72c0,1.821-1.385,2.956-3.63,2.956
	C15.985,33.375,14.52,32.848,13.424,31.858z"/>
<path fill="#D1B386" d="M57.701,29.165V24.07h2.257v4.99c0,1.28,0.818,2.19,1.953,2.19c1.148,0,1.967-0.91,1.967-2.19v-4.99h2.244
	v5.095c0,2.429-1.729,4.132-4.211,4.132C59.443,33.296,57.701,31.593,57.701,29.165z"/>
<path fill="#D1B386" d="M41.069,55.564l-1.993-2.839h-1.108v2.839h-2.257v-9.068h4.21c1.993,0,3.445,1.279,3.445,3.115
	c0,1.319-0.753,2.362-1.928,2.838l2.191,3.115H41.069z M37.968,50.667h1.742c0.779,0,1.333-0.423,1.333-1.056
	c0-0.634-0.554-1.057-1.333-1.057h-1.742V50.667z"/>
<g>
	<path fill="#0E111C" d="M15.982,6.394h1.031l1.555,4.821l1.583-4.821h1.031l1.583,4.821l1.555-4.821h1.03l-2.08,6.321H22.34
		l-1.666-5.033l-1.684,5.033h-0.929L15.982,6.394z"/>
	<path fill="#0E111C" d="M37.711,6.394v6.321h-0.929V9.927h-3.45v2.788h-0.93V6.394h0.93v2.669h3.45V6.394H37.711z"/>
	<path fill="#0E111C" d="M49.594,11.427H46.3l-0.552,1.288h-1.03l2.714-6.321h1.03l2.714,6.321h-1.03L49.594,11.427z M49.235,10.59
		l-1.288-3l-1.288,3H49.235z"/>
	<path fill="#0E111C" d="M59.351,7.259h-2.07V6.394h5.079v0.865h-2.079v5.456h-0.93V7.259z"/>
</g>
<g>
	<path fill="#0E111C" d="M14.124,67.477h0.929v6.321h-0.929V67.477z"/>
	<path fill="#0E111C" d="M22.177,72.887l0.562-0.689c0.561,0.533,1.224,0.883,2.079,0.883c0.874,0,1.325-0.46,1.325-0.966
		c0-0.599-0.524-0.828-1.583-1.067c-1.289-0.304-2.144-0.69-2.144-1.831c0-1.059,0.92-1.858,2.19-1.858
		c0.975,0,1.702,0.358,2.31,0.893l-0.534,0.699c-0.534-0.488-1.168-0.773-1.813-0.773c-0.708,0-1.205,0.451-1.205,0.957
		c0,0.589,0.543,0.791,1.583,1.04c1.261,0.294,2.135,0.718,2.135,1.85c0,1.067-0.81,1.877-2.3,1.877
		C23.723,73.9,22.849,73.532,22.177,72.887z"/>
	<path fill="#0E111C" d="M43.015,67.477h0.929v6.321h-0.929V67.477z"/>
	<path fill="#0E111C" d="M53.167,68.342h-2.07v-0.865h5.079v0.865h-2.079v5.456h-0.93V68.342z"/>
	<path fill="#0E111C" d="M64.267,70.238c1.003-0.074,1.711-0.516,1.711-1.059c0-0.506-0.433-0.975-1.141-0.975
		c-0.607,0-1.067,0.331-1.435,0.772l-0.571-0.57c0.506-0.607,1.187-1.04,2.107-1.04c1.187,0,1.978,0.755,1.978,1.721
		c0,0.828-0.736,1.573-1.767,1.794v1.013h-0.883V70.238z M64.092,73.283c0-0.313,0.267-0.598,0.617-0.598
		c0.331,0,0.598,0.285,0.598,0.598c0,0.341-0.267,0.626-0.598,0.626C64.359,73.909,64.092,73.624,64.092,73.283z"/>
</g>
</svg>
